<svg width="23" height="23" viewBox="0 0 23 23" fill="none" xmlns="http://www.w3.org/2000/svg">
<path d="M11.5 17.9167H6.91667C5.90833 17.9167 5.08333 17.0917 5.08333 16.0833V6.91667C5.08333 5.90833 5.90833 5.08333 6.91667 5.08333H11.5C12.0042 5.08333 12.4167 4.67083 12.4167 4.16667C12.4167 3.6625 12.0042 3.25 11.5 3.25H6.91667C4.89083 3.25 3.25 4.89083 3.25 6.91667V16.0833C3.25 18.1092 4.89083 19.75 6.91667 19.75H11.5C12.0042 19.75 12.4167 19.3375 12.4167 18.8333C12.4167 18.3292 12.0042 17.9167 11.5 17.9167Z" fill="white"/>
<path d="M19.4841 10.8492L16.7341 8.09917C16.6492 8.0143 16.5485 7.94698 16.4376 7.90105C16.3267 7.85512 16.2079 7.83148 16.0878 7.83148C15.9678 7.83148 15.849 7.85512 15.7381 7.90105C15.6272 7.94698 15.5265 8.0143 15.4416 8.09917C15.3567 8.18403 15.2894 8.28479 15.2435 8.39567C15.1975 8.50655 15.1739 8.6254 15.1739 8.74542C15.1739 8.86544 15.1975 8.98428 15.2435 9.09517C15.2894 9.20605 15.3567 9.3068 15.4416 9.39167L16.6241 10.5742H8.74992C8.24575 10.5742 7.83325 10.9867 7.83325 11.4908C7.83325 11.995 8.24575 12.4075 8.74992 12.4075H16.6241L15.4416 13.59C15.3137 13.718 15.2267 13.8812 15.1917 14.0587C15.1567 14.2363 15.1752 14.4202 15.2449 14.5872C15.3147 14.7542 15.4325 14.8967 15.5834 14.9966C15.7343 15.0965 15.9115 15.1493 16.0924 15.1483C16.3308 15.1483 16.5599 15.0567 16.7433 14.8825L19.4933 12.1325C19.5782 12.0477 19.6456 11.947 19.6916 11.8361C19.7376 11.7252 19.7613 11.6063 19.7613 11.4863C19.7613 11.3662 19.7376 11.2473 19.6916 11.1364C19.6456 11.0255 19.5782 10.9248 19.4933 10.84L19.4841 10.8492Z" fill="white"/>
</svg>
