<svg width="22" height="23" viewBox="0 0 22 23" fill="none" xmlns="http://www.w3.org/2000/svg">
<path d="M17.3625 5.13746C13.8462 1.62109 8.15432 1.6206 4.63747 5.13746C1.12111 8.65382 1.12058 14.3457 4.63747 17.8625C8.15383 21.3789 13.8457 21.3794 17.3625 17.8625C20.8789 14.3462 20.8794 8.65435 17.3625 5.13746ZM10.2374 14.1278C10.2374 14.536 9.90654 14.8669 9.49836 14.8669C9.09017 14.8669 8.75928 14.536 8.75928 14.1278V8.87216C8.75928 8.46398 9.09017 8.13308 9.49836 8.13308C9.90654 8.13308 10.2374 8.46398 10.2374 8.87216V14.1278ZM13.2407 14.1278C13.2407 14.536 12.9098 14.8669 12.5016 14.8669C12.0934 14.8669 11.7625 14.536 11.7625 14.1278V8.87216C11.7625 8.46398 12.0934 8.13308 12.5016 8.13308C12.9098 8.13308 13.2407 8.46398 13.2407 8.87216V14.1278Z" fill="#141414" fill-opacity="0.6"/>
</svg>
