<svg width="22" height="23" viewBox="0 0 22 23" fill="none" xmlns="http://www.w3.org/2000/svg">
<path fill-rule="evenodd" clip-rule="evenodd" d="M11 2.5C15.9672 2.5 20 6.53284 20 11.5C20 16.4672 15.9672 20.5 11 20.5C6.03284 20.5 2 16.4672 2 11.5C2 6.53284 6.03284 2.5 11 2.5ZM14.8336 10.9064L9.488 7.99042C9.38502 7.93442 9.26926 7.90614 9.15206 7.90836C9.03486 7.91057 8.92024 7.9432 8.81945 8.00305C8.71866 8.0629 8.63515 8.14792 8.57711 8.24976C8.51907 8.3516 8.48849 8.46678 8.48837 8.584V14.416C8.488 14.5334 8.51827 14.6489 8.57619 14.751C8.63411 14.8531 8.71768 14.9384 8.81863 14.9983C8.91958 15.0583 9.03443 15.0908 9.15182 15.0928C9.26921 15.0948 9.38509 15.0661 9.488 15.0096L14.8336 12.0936C14.9401 12.0353 15.029 11.9495 15.091 11.8451C15.1529 11.7406 15.1856 11.6214 15.1856 11.5C15.1856 11.3786 15.1529 11.2594 15.091 11.1549C15.029 11.0505 14.9401 10.9647 14.8336 10.9064Z" fill="#141414" fill-opacity="0.6"/>
</svg>
