<svg width="22" height="23" viewBox="0 0 22 23" fill="none" xmlns="http://www.w3.org/2000/svg">
<path d="M11 5.20001C9.75393 5.20001 8.53589 5.5695 7.49986 6.26175C6.46383 6.95401 5.65635 7.93793 5.17951 9.08911C4.70268 10.2403 4.57792 11.507 4.82101 12.7291C5.06409 13.9512 5.66411 15.0737 6.54518 15.9548C7.42625 16.8359 8.5488 17.4359 9.77088 17.679C10.993 17.922 12.2597 17.7973 13.4109 17.3204C14.562 16.8436 15.546 16.0361 16.2382 15.0001C16.9305 13.9641 17.3 12.746 17.3 11.5C17.2982 9.82968 16.6339 8.22827 15.4528 7.04717C14.2717 5.86607 12.6703 5.20176 11 5.20001ZM13.868 13.672C13.8121 13.7428 13.741 13.8 13.66 13.8395C13.579 13.8789 13.4901 13.8996 13.4 13.9C13.2643 13.9011 13.1326 13.8544 13.028 13.768L10.628 11.968C10.5572 11.9121 10.5 11.841 10.4606 11.76C10.4211 11.679 10.4004 11.5901 10.4 11.5V7.30001C10.4 7.14088 10.4632 6.98827 10.5757 6.87575C10.6882 6.76323 10.8408 6.70001 11 6.70001C11.1591 6.70001 11.3117 6.76323 11.4242 6.87575C11.5367 6.98827 11.6 7.14088 11.6 7.30001V11.212L13.772 12.832C13.8344 12.8802 13.8865 12.9403 13.9253 13.009C13.964 13.0776 13.9886 13.1534 13.9976 13.2317C14.0065 13.31 13.9997 13.3894 13.9774 13.465C13.9551 13.5406 13.9179 13.611 13.868 13.672Z" fill="#141414" fill-opacity="0.6"/>
<path d="M11 2.5C9.21997 2.5 7.47991 3.02784 5.99987 4.01677C4.51983 5.00571 3.36628 6.41131 2.68509 8.05585C2.0039 9.70038 1.82567 11.51 2.17294 13.2558C2.5202 15.0016 3.37737 16.6053 4.63604 17.864C5.89472 19.1226 7.49836 19.9798 9.24419 20.3271C10.99 20.6743 12.7996 20.4961 14.4442 19.8149C16.0887 19.1337 17.4943 17.9802 18.4832 16.5001C19.4722 15.0201 20 13.28 20 11.5C19.9971 9.11393 19.048 6.8264 17.3608 5.1392C15.6736 3.45199 13.3861 2.50286 11 2.5ZM11 19.0402C9.50869 19.0402 8.05087 18.598 6.81089 17.7694C5.57091 16.9409 4.60447 15.7633 4.03377 14.3855C3.46307 13.0077 3.31375 11.4916 3.60469 10.029C3.89563 8.56632 4.61376 7.22279 5.66828 6.16827C6.72279 5.11376 8.06633 4.39562 9.52898 4.10468C10.9916 3.81374 12.5077 3.96306 13.8855 4.53376C15.2633 5.10446 16.4409 6.07091 17.2695 7.31089C18.098 8.55087 18.5402 10.0087 18.5402 11.5C18.5383 13.4992 17.7433 15.416 16.3296 16.8296C14.916 18.2433 12.9992 19.0383 11 19.0402Z" fill="#141414" fill-opacity="0.6"/>
</svg>
