<svg width="22" height="27" viewBox="0 0 22 27" fill="none" xmlns="http://www.w3.org/2000/svg">
<path d="M10.9981 0.374329C7.90493 0.374329 5.37511 2.90415 5.37511 5.99733C5.37511 9.09052 7.90493 11.6239 10.9981 11.6239C14.0948 11.6239 16.6247 9.09406 16.6247 5.99733C16.6247 2.90061 14.0948 0.374329 10.9981 0.374329ZM9.12378 13.4982C6.88663 13.4992 4.74137 14.3883 3.15947 15.9702C1.57756 17.5521 0.688439 19.6973 0.6875 21.9345V26.6221H21.3087V21.9345C21.3078 19.698 20.4192 17.5532 18.838 15.9714C17.2569 14.3896 15.1125 13.5001 12.876 13.4982C12.7334 13.4983 12.5928 13.5308 12.4647 13.5934C12.3366 13.6559 12.2244 13.7468 12.1366 13.8592C12.0488 13.9715 11.9878 14.1023 11.9582 14.2418C11.9285 14.3812 11.931 14.5256 11.9654 14.6639L13.7122 21.6475L10.9981 24.358L8.28759 21.6475L10.0344 14.6639C10.0694 14.5253 10.0724 14.3806 10.043 14.2407C10.0137 14.1008 9.95274 13.9695 9.86491 13.8567C9.77708 13.7439 9.66467 13.6527 9.53623 13.5899C9.40779 13.5272 9.26672 13.4982 9.12378 13.4982Z" fill="#8A49D6"/>
</svg>
